<svg xmlns="http://www.w3.org/2000/svg" version="1.1" xmlns:xlink="http://www.w3.org/1999/xlink" xmlns:svgjs="http://svgjs.dev/svgjs" width="1200" height="600" preserveAspectRatio="none" viewBox="0 0 1200 600"><g mask="url(&quot;#SvgjsMask1021&quot;)" fill="none"><rect width="1200" height="600" x="0" y="0" fill="#0e2a47"></rect><path d="M-83.88 393.44L-83.88 393.44" stroke="#132e65" stroke-width="1.5"></path><path d="M-83.88 393.44L-52.57 528.39" stroke="#132e65" stroke-width="1.5"></path><path d="M-83.88 393.44L94.44 404.93" stroke="#132e65" stroke-width="1.5"></path><path d="M-83.88 393.44L104.34 535.52" stroke="#132e65" stroke-width="1.5"></path><path d="M-83.88 393.44L-67.68 686.16" stroke="#132e65" stroke-width="1.5"></path><path d="M-83.88 393.44L59.71 677.52" stroke="#132e65" stroke-width="1.5"></path><path d="M-52.57 528.39L-52.57 528.39" stroke="#132e65" stroke-width="1.5"></path><path d="M-52.57 528.39L104.34 535.52" stroke="#132e65" stroke-width="1.5"></path><path d="M-52.57 528.39L-67.68 686.16" stroke="#132e65" stroke-width="1.5"></path><path d="M-52.57 528.39L59.71 677.52" stroke="#132e65" stroke-width="1.5"></path><path d="M-67.68 686.16L-67.68 686.16" stroke="#132e65" stroke-width="1.5"></path><path d="M-67.68 686.16L59.71 677.52" stroke="#132e65" stroke-width="1.5"></path><path d="M94.44 404.93L94.44 404.93" stroke="#132e65" stroke-width="1.5"></path><path d="M94.44 404.93L104.34 535.52" stroke="#132e65" stroke-width="1.5"></path><path d="M94.44 404.93L-52.57 528.39" stroke="#132e65" stroke-width="1.5"></path><path d="M94.44 404.93L254.05 540.21" stroke="#132e65" stroke-width="1.5"></path><path d="M94.44 404.93L59.71 677.52" stroke="#132e65" stroke-width="1.5"></path><path d="M104.34 535.52L104.34 535.52" stroke="#132e65" stroke-width="1.5"></path><path d="M104.34 535.52L59.71 677.52" stroke="#132e65" stroke-width="1.5"></path><path d="M104.34 535.52L254.05 540.21" stroke="#132e65" stroke-width="1.5"></path><path d="M59.71 677.52L59.71 677.52" stroke="#132e65" stroke-width="1.5"></path><path d="M254.05 540.21L254.05 540.21" stroke="#132e65" stroke-width="1.5"></path><path d="M254.05 540.21L361.5 561.82" stroke="#132e65" stroke-width="1.5"></path><path d="M254.05 540.21L262.38 686.6" stroke="#132e65" stroke-width="1.5"></path><path d="M254.05 540.21L397.03 651.07" stroke="#132e65" stroke-width="1.5"></path><path d="M254.05 540.21L403.66 399.39" stroke="#132e65" stroke-width="1.5"></path><path d="M262.38 686.6L262.38 686.6" stroke="#132e65" stroke-width="1.5"></path><path d="M262.38 686.6L397.03 651.07" stroke="#132e65" stroke-width="1.5"></path><path d="M262.38 686.6L361.5 561.82" stroke="#132e65" stroke-width="1.5"></path><path d="M403.66 399.39L403.66 399.39" stroke="#132e65" stroke-width="1.5"></path><path d="M403.66 399.39L552.71 386.62" stroke="#132e65" stroke-width="1.5"></path><path d="M403.66 399.39L361.5 561.82" stroke="#132e65" stroke-width="1.5"></path><path d="M403.66 399.39L397.03 651.07" stroke="#132e65" stroke-width="1.5"></path><path d="M361.5 561.82L361.5 561.82" stroke="#132e65" stroke-width="1.5"></path><path d="M361.5 561.82L397.03 651.07" stroke="#132e65" stroke-width="1.5"></path><path d="M397.03 651.07L397.03 651.07" stroke="#132e65" stroke-width="1.5"></path><path d="M397.03 651.07L553.14 701.62" stroke="#132e65" stroke-width="1.5"></path><path d="M552.71 386.62L552.71 386.62" stroke="#132e65" stroke-width="1.5"></path><path d="M552.71 386.62L666.04 377.88" stroke="#132e65" stroke-width="1.5"></path><path d="M553.14 701.62L553.14 701.62" stroke="#132e65" stroke-width="1.5"></path><path d="M553.14 701.62L680.77 654.46" stroke="#132e65" stroke-width="1.5"></path><path d="M553.14 701.62L664.54 540.33" stroke="#132e65" stroke-width="1.5"></path><path d="M710.79 94.5L710.79 94.5" stroke="#132e65" stroke-width="1.5"></path><path d="M710.79 94.5L660.77 193.61" stroke="#132e65" stroke-width="1.5"></path><path d="M710.79 94.5L827.43 54.11" stroke="#132e65" stroke-width="1.5"></path><path d="M710.79 94.5L812.97 216.72" stroke="#132e65" stroke-width="1.5"></path><path d="M660.77 193.61L660.77 193.61" stroke="#132e65" stroke-width="1.5"></path><path d="M660.77 193.61L812.97 216.72" stroke="#132e65" stroke-width="1.5"></path><path d="M660.77 193.61L666.04 377.88" stroke="#132e65" stroke-width="1.5"></path><path d="M660.77 193.61L818.76 341.47" stroke="#132e65" stroke-width="1.5"></path><path d="M660.77 193.61L827.43 54.11" stroke="#132e65" stroke-width="1.5"></path><path d="M666.04 377.88L666.04 377.88" stroke="#132e65" stroke-width="1.5"></path><path d="M666.04 377.88L818.76 341.47" stroke="#132e65" stroke-width="1.5"></path><path d="M664.54 540.33L664.54 540.33" stroke="#132e65" stroke-width="1.5"></path><path d="M664.54 540.33L680.77 654.46" stroke="#132e65" stroke-width="1.5"></path><path d="M664.54 540.33L787.74 503.65" stroke="#132e65" stroke-width="1.5"></path><path d="M680.77 654.46L680.77 654.46" stroke="#132e65" stroke-width="1.5"></path><path d="M680.77 654.46L820.63 660.97" stroke="#132e65" stroke-width="1.5"></path><path d="M680.77 654.46L787.74 503.65" stroke="#132e65" stroke-width="1.5"></path><path d="M680.77 654.46L938.38 555.68" stroke="#132e65" stroke-width="1.5"></path><path d="M854.05 -39.11L854.05 -39.11" stroke="#132e65" stroke-width="1.5"></path><path d="M854.05 -39.11L827.43 54.11" stroke="#132e65" stroke-width="1.5"></path><path d="M854.05 -39.11L955.41 -57.73" stroke="#132e65" stroke-width="1.5"></path><path d="M827.43 54.11L827.43 54.11" stroke="#132e65" stroke-width="1.5"></path><path d="M827.43 54.11L938.84 94.55" stroke="#132e65" stroke-width="1.5"></path><path d="M827.43 54.11L812.97 216.72" stroke="#132e65" stroke-width="1.5"></path><path d="M827.43 54.11L955.41 -57.73" stroke="#132e65" stroke-width="1.5"></path><path d="M812.97 216.72L812.97 216.72" stroke="#132e65" stroke-width="1.5"></path><path d="M812.97 216.72L818.76 341.47" stroke="#132e65" stroke-width="1.5"></path><path d="M818.76 341.47L818.76 341.47" stroke="#132e65" stroke-width="1.5"></path><path d="M818.76 341.47L787.74 503.65" stroke="#132e65" stroke-width="1.5"></path><path d="M818.76 341.47L1011.05 387.19" stroke="#132e65" stroke-width="1.5"></path><path d="M818.76 341.47L982.58 205.91" stroke="#132e65" stroke-width="1.5"></path><path d="M787.74 503.65L787.74 503.65" stroke="#132e65" stroke-width="1.5"></path><path d="M787.74 503.65L938.38 555.68" stroke="#132e65" stroke-width="1.5"></path><path d="M787.74 503.65L820.63 660.97" stroke="#132e65" stroke-width="1.5"></path><path d="M820.63 660.97L820.63 660.97" stroke="#132e65" stroke-width="1.5"></path><path d="M820.63 660.97L956.76 706.65" stroke="#132e65" stroke-width="1.5"></path><path d="M820.63 660.97L938.38 555.68" stroke="#132e65" stroke-width="1.5"></path><path d="M955.41 -57.73L955.41 -57.73" stroke="#132e65" stroke-width="1.5"></path><path d="M955.41 -57.73L938.84 94.55" stroke="#132e65" stroke-width="1.5"></path><path d="M955.41 -57.73L1139.06 -65.65" stroke="#132e65" stroke-width="1.5"></path><path d="M938.84 94.55L938.84 94.55" stroke="#132e65" stroke-width="1.5"></path><path d="M938.84 94.55L982.58 205.91" stroke="#132e65" stroke-width="1.5"></path><path d="M938.84 94.55L854.05 -39.11" stroke="#132e65" stroke-width="1.5"></path><path d="M938.84 94.55L812.97 216.72" stroke="#132e65" stroke-width="1.5"></path><path d="M938.84 94.55L1158.09 86.51" stroke="#132e65" stroke-width="1.5"></path><path d="M982.58 205.91L982.58 205.91" stroke="#132e65" stroke-width="1.5"></path><path d="M982.58 205.91L812.97 216.72" stroke="#132e65" stroke-width="1.5"></path><path d="M982.58 205.91L1011.05 387.19" stroke="#132e65" stroke-width="1.5"></path><path d="M982.58 205.91L1158.09 86.51" stroke="#132e65" stroke-width="1.5"></path><path d="M1011.05 387.19L1011.05 387.19" stroke="#132e65" stroke-width="1.5"></path><path d="M1011.05 387.19L938.38 555.68" stroke="#132e65" stroke-width="1.5"></path><path d="M938.38 555.68L938.38 555.68" stroke="#132e65" stroke-width="1.5"></path><path d="M938.38 555.68L956.76 706.65" stroke="#132e65" stroke-width="1.5"></path><path d="M938.38 555.68L1088.41 657.64" stroke="#132e65" stroke-width="1.5"></path><path d="M956.76 706.65L956.76 706.65" stroke="#132e65" stroke-width="1.5"></path><path d="M956.76 706.65L1088.41 657.64" stroke="#132e65" stroke-width="1.5"></path><path d="M956.76 706.65L787.74 503.65" stroke="#132e65" stroke-width="1.5"></path><path d="M956.76 706.65L680.77 654.46" stroke="#132e65" stroke-width="1.5"></path><path d="M1139.06 -65.65L1139.06 -65.65" stroke="#132e65" stroke-width="1.5"></path><path d="M1139.06 -65.65L1158.09 86.51" stroke="#132e65" stroke-width="1.5"></path><path d="M1139.06 -65.65L1306.81 -76.05" stroke="#132e65" stroke-width="1.5"></path><path d="M1158.09 86.51L1158.09 86.51" stroke="#132e65" stroke-width="1.5"></path><path d="M1158.09 86.51L1296.81 109.41" stroke="#132e65" stroke-width="1.5"></path><path d="M1158.09 86.51L1306.44 196.62" stroke="#132e65" stroke-width="1.5"></path><path d="M1088.41 657.64L1088.41 657.64" stroke="#132e65" stroke-width="1.5"></path><path d="M1088.41 657.64L1237.61 520.86" stroke="#132e65" stroke-width="1.5"></path><path d="M1088.41 657.64L1310.49 709.76" stroke="#132e65" stroke-width="1.5"></path><path d="M1088.41 657.64L820.63 660.97" stroke="#132e65" stroke-width="1.5"></path><path d="M1088.41 657.64L1011.05 387.19" stroke="#132e65" stroke-width="1.5"></path><path d="M1306.81 -76.05L1306.81 -76.05" stroke="#132e65" stroke-width="1.5"></path><path d="M1306.81 -76.05L1296.81 109.41" stroke="#132e65" stroke-width="1.5"></path><path d="M1306.81 -76.05L1158.09 86.51" stroke="#132e65" stroke-width="1.5"></path><path d="M1306.81 -76.05L1306.44 196.62" stroke="#132e65" stroke-width="1.5"></path><path d="M1296.81 109.41L1296.81 109.41" stroke="#132e65" stroke-width="1.5"></path><path d="M1296.81 109.41L1306.44 196.62" stroke="#132e65" stroke-width="1.5"></path><path d="M1296.81 109.41L1139.06 -65.65" stroke="#132e65" stroke-width="1.5"></path><path d="M1296.81 109.41L1282.45 410.66" stroke="#132e65" stroke-width="1.5"></path><path d="M1296.81 109.41L982.58 205.91" stroke="#132e65" stroke-width="1.5"></path><path d="M1306.44 196.62L1306.44 196.62" stroke="#132e65" stroke-width="1.5"></path><path d="M1282.45 410.66L1282.45 410.66" stroke="#132e65" stroke-width="1.5"></path><path d="M1282.45 410.66L1237.61 520.86" stroke="#132e65" stroke-width="1.5"></path><path d="M1282.45 410.66L1306.44 196.62" stroke="#132e65" stroke-width="1.5"></path><path d="M1282.45 410.66L1011.05 387.19" stroke="#132e65" stroke-width="1.5"></path><path d="M1282.45 410.66L1310.49 709.76" stroke="#132e65" stroke-width="1.5"></path><path d="M1282.45 410.66L1088.41 657.64" stroke="#132e65" stroke-width="1.5"></path><path d="M1237.61 520.86L1237.61 520.86" stroke="#132e65" stroke-width="1.5"></path><path d="M1237.61 520.86L1310.49 709.76" stroke="#132e65" stroke-width="1.5"></path><path d="M1310.49 709.76L1310.49 709.76" stroke="#132e65" stroke-width="1.5"></path><path d="M1310.49 709.76L956.76 706.65" stroke="#132e65" stroke-width="1.5"></path><path d="M1310.49 709.76L938.38 555.68" stroke="#132e65" stroke-width="1.5"></path><path d="M1310.49 709.76L1011.05 387.19" stroke="#132e65" stroke-width="1.5"></path><circle r="5" cx="-83.88" cy="393.44" fill="#132e65"></circle><circle r="5" cx="-52.57" cy="528.39" fill="#132e65"></circle><circle r="5" cx="-67.68" cy="686.16" fill="#132e65"></circle><circle r="5" cx="94.44" cy="404.93" fill="#132e65"></circle><circle r="5" cx="104.34" cy="535.52" fill="#132e65"></circle><circle r="5" cx="59.71" cy="677.52" fill="#132e65"></circle><circle r="5" cx="254.05" cy="540.21" fill="#132e65"></circle><circle r="5" cx="262.38" cy="686.6" fill="#132e65"></circle><circle r="5" cx="403.66" cy="399.39" fill="#132e65"></circle><circle r="5" cx="361.5" cy="561.82" fill="#132e65"></circle><circle r="5" cx="397.03" cy="651.07" fill="#132e65"></circle><circle r="5" cx="552.71" cy="386.62" fill="#132e65"></circle><circle r="5" cx="553.14" cy="701.62" fill="#132e65"></circle><circle r="5" cx="710.79" cy="94.5" fill="#132e65"></circle><circle r="5" cx="660.77" cy="193.61" fill="#132e65"></circle><circle r="5" cx="666.04" cy="377.88" fill="#132e65"></circle><circle r="5" cx="664.54" cy="540.33" fill="#132e65"></circle><circle r="5" cx="680.77" cy="654.46" fill="#132e65"></circle><circle r="5" cx="854.05" cy="-39.11" fill="#132e65"></circle><circle r="5" cx="827.43" cy="54.11" fill="#132e65"></circle><circle r="5" cx="812.97" cy="216.72" fill="#132e65"></circle><circle r="5" cx="818.76" cy="341.47" fill="#132e65"></circle><circle r="5" cx="787.74" cy="503.65" fill="#132e65"></circle><circle r="5" cx="820.63" cy="660.97" fill="#132e65"></circle><circle r="5" cx="955.41" cy="-57.73" fill="#132e65"></circle><circle r="5" cx="938.84" cy="94.55" fill="#132e65"></circle><circle r="5" cx="982.58" cy="205.91" fill="#132e65"></circle><circle r="5" cx="1011.05" cy="387.19" fill="#132e65"></circle><circle r="5" cx="938.38" cy="555.68" fill="#132e65"></circle><circle r="5" cx="956.76" cy="706.65" fill="#132e65"></circle><circle r="5" cx="1139.06" cy="-65.65" fill="#132e65"></circle><circle r="5" cx="1158.09" cy="86.51" fill="#132e65"></circle><circle r="5" cx="1088.41" cy="657.64" fill="#132e65"></circle><circle r="5" cx="1306.81" cy="-76.05" fill="#132e65"></circle><circle r="5" cx="1296.81" cy="109.41" fill="#132e65"></circle><circle r="5" cx="1306.44" cy="196.62" fill="#132e65"></circle><circle r="5" cx="1282.45" cy="410.66" fill="#132e65"></circle><circle r="5" cx="1237.61" cy="520.86" fill="#132e65"></circle><circle r="5" cx="1310.49" cy="709.76" fill="#132e65"></circle><path d="M-43.05 640.54L-43.05 640.54" stroke="hsl(228.5, 77.2%, 51.5%)" stroke-width="1.5"></path><path d="M-43.05 640.54L41.9 678.34" stroke="hsl(228.5, 77.2%, 51.5%)" stroke-width="1.5"></path><path d="M-43.05 640.54L-76.78 534.78" stroke="hsl(228.5, 77.2%, 51.5%)" stroke-width="1.5"></path><path d="M-43.05 640.54L84.15 544.95" stroke="hsl(228.5, 77.2%, 51.5%)" stroke-width="1.5"></path><path d="M-43.05 640.54L202.56 676.71" stroke="hsl(228.5, 77.2%, 51.5%)" stroke-width="1.5"></path><path d="M-43.05 640.54L215.78 495.71" stroke="hsl(228.5, 77.2%, 51.5%)" stroke-width="1.5"></path><path d="M-43.05 640.54L361.35 522.72" stroke="hsl(228.5, 77.2%, 51.5%)" stroke-width="1.5"></path><path d="M666.15 367.48L666.15 367.48" stroke="hsl(228.5, 77.2%, 51.5%)" stroke-width="1.5"></path><path d="M666.15 367.48L709.85 527.23" stroke="hsl(228.5, 77.2%, 51.5%)" stroke-width="1.5"></path><path d="M666.15 367.48L800.55 494.67" stroke="hsl(228.5, 77.2%, 51.5%)" stroke-width="1.5"></path><path d="M800.55 494.67L800.55 494.67" stroke="hsl(228.5, 77.2%, 51.5%)" stroke-width="1.5"></path><path d="M800.55 494.67L709.85 527.23" stroke="hsl(228.5, 77.2%, 51.5%)" stroke-width="1.5"></path><path d="M800.55 494.67L848.11 401.64" stroke="hsl(228.5, 77.2%, 51.5%)" stroke-width="1.5"></path><path d="M800.55 494.67L948.41 556.68" stroke="hsl(228.5, 77.2%, 51.5%)" stroke-width="1.5"></path><path d="M958.69 655.26L958.69 655.26" stroke="hsl(228.5, 77.2%, 51.5%)" stroke-width="1.5"></path><path d="M958.69 655.26L948.41 556.68" stroke="hsl(228.5, 77.2%, 51.5%)" stroke-width="1.5"></path><path d="M958.69 655.26L843.83 669.38" stroke="hsl(228.5, 77.2%, 51.5%)" stroke-width="1.5"></path><path d="M1255.98 37.58L1255.98 37.58" stroke="hsl(228.5, 77.2%, 51.5%)" stroke-width="1.5"></path><path d="M1255.98 37.58L1271.31 -96.19" stroke="hsl(228.5, 77.2%, 51.5%)" stroke-width="1.5"></path><path d="M1255.98 37.58L1097.67 50.6" stroke="hsl(228.5, 77.2%, 51.5%)" stroke-width="1.5"></path><path d="M1255.98 37.58L1305.84 218.7" stroke="hsl(228.5, 77.2%, 51.5%)" stroke-width="1.5"></path><path d="M-76.78 534.78L-76.78 534.78" stroke="hsl(228.5, 77.2%, 51.5%)" stroke-width="1.5"></path><path d="M-76.78 534.78L84.15 544.95" stroke="hsl(228.5, 77.2%, 51.5%)" stroke-width="1.5"></path><path d="M84.15 544.95L84.15 544.95" stroke="hsl(228.5, 77.2%, 51.5%)" stroke-width="1.5"></path><path d="M84.15 544.95L41.9 678.34" stroke="hsl(228.5, 77.2%, 51.5%)" stroke-width="1.5"></path><path d="M84.15 544.95L215.78 495.71" stroke="hsl(228.5, 77.2%, 51.5%)" stroke-width="1.5"></path><path d="M41.9 678.34L41.9 678.34" stroke="hsl(228.5, 77.2%, 51.5%)" stroke-width="1.5"></path><path d="M41.9 678.34L202.56 676.71" stroke="hsl(228.5, 77.2%, 51.5%)" stroke-width="1.5"></path><path d="M41.9 678.34L-76.78 534.78" stroke="hsl(228.5, 77.2%, 51.5%)" stroke-width="1.5"></path><path d="M41.9 678.34L215.78 495.71" stroke="hsl(228.5, 77.2%, 51.5%)" stroke-width="1.5"></path><path d="M41.9 678.34L361.35 522.72" stroke="hsl(228.5, 77.2%, 51.5%)" stroke-width="1.5"></path><path d="M215.78 495.71L215.78 495.71" stroke="hsl(228.5, 77.2%, 51.5%)" stroke-width="1.5"></path><path d="M215.78 495.71L361.35 522.72" stroke="hsl(228.5, 77.2%, 51.5%)" stroke-width="1.5"></path><path d="M215.78 495.71L202.56 676.71" stroke="hsl(228.5, 77.2%, 51.5%)" stroke-width="1.5"></path><path d="M215.78 495.71L399.25 711.03" stroke="hsl(228.5, 77.2%, 51.5%)" stroke-width="1.5"></path><path d="M215.78 495.71L-76.78 534.78" stroke="hsl(228.5, 77.2%, 51.5%)" stroke-width="1.5"></path><path d="M202.56 676.71L202.56 676.71" stroke="hsl(228.5, 77.2%, 51.5%)" stroke-width="1.5"></path><path d="M202.56 676.71L84.15 544.95" stroke="hsl(228.5, 77.2%, 51.5%)" stroke-width="1.5"></path><path d="M202.56 676.71L399.25 711.03" stroke="hsl(228.5, 77.2%, 51.5%)" stroke-width="1.5"></path><path d="M202.56 676.71L361.35 522.72" stroke="hsl(228.5, 77.2%, 51.5%)" stroke-width="1.5"></path><path d="M361.35 522.72L361.35 522.72" stroke="hsl(228.5, 77.2%, 51.5%)" stroke-width="1.5"></path><path d="M361.35 522.72L529.16 512.98" stroke="hsl(228.5, 77.2%, 51.5%)" stroke-width="1.5"></path><path d="M361.35 522.72L399.25 711.03" stroke="hsl(228.5, 77.2%, 51.5%)" stroke-width="1.5"></path><path d="M399.25 711.03L399.25 711.03" stroke="hsl(228.5, 77.2%, 51.5%)" stroke-width="1.5"></path><path d="M399.25 711.03L520.51 661.48" stroke="hsl(228.5, 77.2%, 51.5%)" stroke-width="1.5"></path><path d="M529.16 512.98L529.16 512.98" stroke="hsl(228.5, 77.2%, 51.5%)" stroke-width="1.5"></path><path d="M529.16 512.98L520.51 661.48" stroke="hsl(228.5, 77.2%, 51.5%)" stroke-width="1.5"></path><path d="M529.16 512.98L709.85 527.23" stroke="hsl(228.5, 77.2%, 51.5%)" stroke-width="1.5"></path><path d="M529.16 512.98L666.15 367.48" stroke="hsl(228.5, 77.2%, 51.5%)" stroke-width="1.5"></path><path d="M529.16 512.98L697.67 656.26" stroke="hsl(228.5, 77.2%, 51.5%)" stroke-width="1.5"></path><path d="M520.51 661.48L520.51 661.48" stroke="hsl(228.5, 77.2%, 51.5%)" stroke-width="1.5"></path><path d="M709.85 527.23L709.85 527.23" stroke="hsl(228.5, 77.2%, 51.5%)" stroke-width="1.5"></path><path d="M709.85 527.23L697.67 656.26" stroke="hsl(228.5, 77.2%, 51.5%)" stroke-width="1.5"></path><path d="M697.67 656.26L697.67 656.26" stroke="hsl(228.5, 77.2%, 51.5%)" stroke-width="1.5"></path><path d="M697.67 656.26L843.83 669.38" stroke="hsl(228.5, 77.2%, 51.5%)" stroke-width="1.5"></path><path d="M697.67 656.26L520.51 661.48" stroke="hsl(228.5, 77.2%, 51.5%)" stroke-width="1.5"></path><path d="M848.11 401.64L848.11 401.64" stroke="hsl(228.5, 77.2%, 51.5%)" stroke-width="1.5"></path><path d="M843.83 669.38L843.83 669.38" stroke="hsl(228.5, 77.2%, 51.5%)" stroke-width="1.5"></path><path d="M843.83 669.38L948.41 556.68" stroke="hsl(228.5, 77.2%, 51.5%)" stroke-width="1.5"></path><path d="M979.06 251.51L979.06 251.51" stroke="hsl(228.5, 77.2%, 51.5%)" stroke-width="1.5"></path><path d="M979.06 251.51L997.35 356.85" stroke="hsl(228.5, 77.2%, 51.5%)" stroke-width="1.5"></path><path d="M979.06 251.51L1109.16 369.01" stroke="hsl(228.5, 77.2%, 51.5%)" stroke-width="1.5"></path><path d="M979.06 251.51L1157.84 229.31" stroke="hsl(228.5, 77.2%, 51.5%)" stroke-width="1.5"></path><path d="M979.06 251.51L848.11 401.64" stroke="hsl(228.5, 77.2%, 51.5%)" stroke-width="1.5"></path><path d="M997.35 356.85L997.35 356.85" stroke="hsl(228.5, 77.2%, 51.5%)" stroke-width="1.5"></path><path d="M997.35 356.85L1109.16 369.01" stroke="hsl(228.5, 77.2%, 51.5%)" stroke-width="1.5"></path><path d="M948.41 556.68L948.41 556.68" stroke="hsl(228.5, 77.2%, 51.5%)" stroke-width="1.5"></path><path d="M948.41 556.68L1092.3 652.73" stroke="hsl(228.5, 77.2%, 51.5%)" stroke-width="1.5"></path><path d="M948.41 556.68L848.11 401.64" stroke="hsl(228.5, 77.2%, 51.5%)" stroke-width="1.5"></path><path d="M1097.67 50.6L1097.67 50.6" stroke="hsl(228.5, 77.2%, 51.5%)" stroke-width="1.5"></path><path d="M1097.67 50.6L1157.84 229.31" stroke="hsl(228.5, 77.2%, 51.5%)" stroke-width="1.5"></path><path d="M1097.67 50.6L1271.31 -96.19" stroke="hsl(228.5, 77.2%, 51.5%)" stroke-width="1.5"></path><path d="M1097.67 50.6L979.06 251.51" stroke="hsl(228.5, 77.2%, 51.5%)" stroke-width="1.5"></path><path d="M1097.67 50.6L1305.84 218.7" stroke="hsl(228.5, 77.2%, 51.5%)" stroke-width="1.5"></path><path d="M1097.67 50.6L1109.16 369.01" stroke="hsl(228.5, 77.2%, 51.5%)" stroke-width="1.5"></path><path d="M1157.84 229.31L1157.84 229.31" stroke="hsl(228.5, 77.2%, 51.5%)" stroke-width="1.5"></path><path d="M1157.84 229.31L1109.16 369.01" stroke="hsl(228.5, 77.2%, 51.5%)" stroke-width="1.5"></path><path d="M1157.84 229.31L1305.84 218.7" stroke="hsl(228.5, 77.2%, 51.5%)" stroke-width="1.5"></path><path d="M1157.84 229.31L1285.04 343.98" stroke="hsl(228.5, 77.2%, 51.5%)" stroke-width="1.5"></path><path d="M1157.84 229.31L997.35 356.85" stroke="hsl(228.5, 77.2%, 51.5%)" stroke-width="1.5"></path><path d="M1109.16 369.01L1109.16 369.01" stroke="hsl(228.5, 77.2%, 51.5%)" stroke-width="1.5"></path><path d="M1109.16 369.01L1152.57 532.2" stroke="hsl(228.5, 77.2%, 51.5%)" stroke-width="1.5"></path><path d="M1109.16 369.01L1285.04 343.98" stroke="hsl(228.5, 77.2%, 51.5%)" stroke-width="1.5"></path><path d="M1152.57 532.2L1152.57 532.2" stroke="hsl(228.5, 77.2%, 51.5%)" stroke-width="1.5"></path><path d="M1152.57 532.2L1092.3 652.73" stroke="hsl(228.5, 77.2%, 51.5%)" stroke-width="1.5"></path><path d="M1152.57 532.2L1295.67 549.26" stroke="hsl(228.5, 77.2%, 51.5%)" stroke-width="1.5"></path><path d="M1152.57 532.2L1299.52 671.4" stroke="hsl(228.5, 77.2%, 51.5%)" stroke-width="1.5"></path><path d="M1092.3 652.73L1092.3 652.73" stroke="hsl(228.5, 77.2%, 51.5%)" stroke-width="1.5"></path><path d="M1092.3 652.73L958.69 655.26" stroke="hsl(228.5, 77.2%, 51.5%)" stroke-width="1.5"></path><path d="M1092.3 652.73L1299.52 671.4" stroke="hsl(228.5, 77.2%, 51.5%)" stroke-width="1.5"></path><path d="M1092.3 652.73L1295.67 549.26" stroke="hsl(228.5, 77.2%, 51.5%)" stroke-width="1.5"></path><path d="M1271.31 -96.19L1271.31 -96.19" stroke="hsl(228.5, 77.2%, 51.5%)" stroke-width="1.5"></path><path d="M1271.31 -96.19L1305.84 218.7" stroke="hsl(228.5, 77.2%, 51.5%)" stroke-width="1.5"></path><path d="M1271.31 -96.19L1157.84 229.31" stroke="hsl(228.5, 77.2%, 51.5%)" stroke-width="1.5"></path><path d="M1305.84 218.7L1305.84 218.7" stroke="hsl(228.5, 77.2%, 51.5%)" stroke-width="1.5"></path><path d="M1305.84 218.7L1285.04 343.98" stroke="hsl(228.5, 77.2%, 51.5%)" stroke-width="1.5"></path><path d="M1305.84 218.7L1109.16 369.01" stroke="hsl(228.5, 77.2%, 51.5%)" stroke-width="1.5"></path><path d="M1285.04 343.98L1285.04 343.98" stroke="hsl(228.5, 77.2%, 51.5%)" stroke-width="1.5"></path><path d="M1285.04 343.98L1295.67 549.26" stroke="hsl(228.5, 77.2%, 51.5%)" stroke-width="1.5"></path><path d="M1285.04 343.98L1152.57 532.2" stroke="hsl(228.5, 77.2%, 51.5%)" stroke-width="1.5"></path><path d="M1285.04 343.98L997.35 356.85" stroke="hsl(228.5, 77.2%, 51.5%)" stroke-width="1.5"></path><path d="M1295.67 549.26L1295.67 549.26" stroke="hsl(228.5, 77.2%, 51.5%)" stroke-width="1.5"></path><path d="M1295.67 549.26L1299.52 671.4" stroke="hsl(228.5, 77.2%, 51.5%)" stroke-width="1.5"></path><path d="M1299.52 671.4L1299.52 671.4" stroke="hsl(228.5, 77.2%, 51.5%)" stroke-width="1.5"></path><path d="M1299.52 671.4L1285.04 343.98" stroke="hsl(228.5, 77.2%, 51.5%)" stroke-width="1.5"></path><path d="M1299.52 671.4L958.69 655.26" stroke="hsl(228.5, 77.2%, 51.5%)" stroke-width="1.5"></path><path d="M1299.52 671.4L1109.16 369.01" stroke="hsl(228.5, 77.2%, 51.5%)" stroke-width="1.5"></path><circle r="25" cx="-43.05" cy="640.54" fill="url(&quot;#SvgjsRadialGradient1022&quot;)"></circle><circle r="25" cx="666.15" cy="367.48" fill="url(&quot;#SvgjsRadialGradient1022&quot;)"></circle><circle r="25" cx="800.55" cy="494.67" fill="url(&quot;#SvgjsRadialGradient1022&quot;)"></circle><circle r="25" cx="958.69" cy="655.26" fill="url(&quot;#SvgjsRadialGradient1022&quot;)"></circle><circle r="25" cx="1255.98" cy="37.58" fill="url(&quot;#SvgjsRadialGradient1022&quot;)"></circle><circle r="5" cx="-76.78" cy="534.78" fill="#8b9ad9"></circle><circle r="5" cx="84.15" cy="544.95" fill="#8b9ad9"></circle><circle r="5" cx="41.9" cy="678.34" fill="#8b9ad9"></circle><circle r="5" cx="215.78" cy="495.71" fill="#8b9ad9"></circle><circle r="5" cx="202.56" cy="676.71" fill="#8b9ad9"></circle><circle r="5" cx="361.35" cy="522.72" fill="#8b9ad9"></circle><circle r="5" cx="399.25" cy="711.03" fill="#8b9ad9"></circle><circle r="5" cx="529.16" cy="512.98" fill="#8b9ad9"></circle><circle r="5" cx="520.51" cy="661.48" fill="#8b9ad9"></circle><circle r="5" cx="709.85" cy="527.23" fill="#8b9ad9"></circle><circle r="5" cx="697.67" cy="656.26" fill="#8b9ad9"></circle><circle r="5" cx="848.11" cy="401.64" fill="#8b9ad9"></circle><circle r="5" cx="843.83" cy="669.38" fill="#8b9ad9"></circle><circle r="5" cx="979.06" cy="251.51" fill="#8b9ad9"></circle><circle r="5" cx="997.35" cy="356.85" fill="#8b9ad9"></circle><circle r="5" cx="948.41" cy="556.68" fill="#8b9ad9"></circle><circle r="5" cx="1097.67" cy="50.6" fill="#8b9ad9"></circle><circle r="5" cx="1157.84" cy="229.31" fill="#8b9ad9"></circle><circle r="5" cx="1109.16" cy="369.01" fill="#8b9ad9"></circle><circle r="5" cx="1152.57" cy="532.2" fill="#8b9ad9"></circle><circle r="5" cx="1092.3" cy="652.73" fill="#8b9ad9"></circle><circle r="5" cx="1271.31" cy="-96.19" fill="#8b9ad9"></circle><circle r="5" cx="1305.84" cy="218.7" fill="#8b9ad9"></circle><circle r="5" cx="1285.04" cy="343.98" fill="#8b9ad9"></circle><circle r="5" cx="1295.67" cy="549.26" fill="#8b9ad9"></circle><circle r="5" cx="1299.52" cy="671.4" fill="#8b9ad9"></circle></g><defs><mask id="SvgjsMask1021"><rect width="1200" height="600" fill="#ffffff"></rect></mask><radialGradient id="SvgjsRadialGradient1022"><stop stop-color="#ffffff" offset="0.1"></stop><stop stop-color="#1735b3" offset="0.2"></stop><stop stop-color="rgba(23, 53, 179, 0)" offset="1"></stop></radialGradient></defs></svg>